<?xml version="1.0" encoding="UTF-8" standalone="no"?>
<!-- Created with Inkscape (http://www.inkscape.org/) -->

<svg
   width="210mm"
   height="297mm"
   viewBox="0 0 210 297"
   version="1.1"
   id="svg1"
   xml:space="preserve"
   inkscape:version="1.4.1-rc (d9e8dc1fe0, 2025-03-10)"
   sodipodi:docname="sg.svg"
   xmlns:inkscape="http://www.inkscape.org/namespaces/inkscape"
   xmlns:sodipodi="http://sodipodi.sourceforge.net/DTD/sodipodi-0.dtd"
   xmlns:xlink="http://www.w3.org/1999/xlink"
   xmlns="http://www.w3.org/2000/svg"
   xmlns:svg="http://www.w3.org/2000/svg"><sodipodi:namedview
     id="namedview1"
     pagecolor="#ffffff"
     bordercolor="#000000"
     borderopacity="0.25"
     inkscape:showpageshadow="2"
     inkscape:pageopacity="0.0"
     inkscape:pagecheckerboard="0"
     inkscape:deskcolor="#d1d1d1"
     inkscape:document-units="mm"
     inkscape:zoom="1.6979658"
     inkscape:cx="396.65111"
     inkscape:cy="561.25984"
     inkscape:window-width="3840"
     inkscape:window-height="2109"
     inkscape:window-x="0"
     inkscape:window-y="27"
     inkscape:window-maximized="1"
     inkscape:current-layer="layer1" /><defs
     id="defs1"><linearGradient
       id="linearGradient3"
       inkscape:collect="always"><stop
         style="stop-color:#1fc2f6;stop-opacity:0.65080565;"
         offset="0"
         id="stop3" /><stop
         style="stop-color:#22ac2f;stop-opacity:0.78962493;"
         offset="1"
         id="stop4" /></linearGradient><linearGradient
       id="linearGradient1"
       inkscape:collect="always"><stop
         style="stop-color:#21ab2f;stop-opacity:0.79000002;"
         offset="0"
         id="stop1" /><stop
         style="stop-color:#119db9;stop-opacity:0.60704082;"
         offset="1"
         id="stop2" /></linearGradient><linearGradient
       inkscape:collect="always"
       xlink:href="#linearGradient1"
       id="linearGradient2"
       x1="67.128692"
       y1="109.4542"
       x2="140.62603"
       y2="109.4542"
       gradientUnits="userSpaceOnUse"
       gradientTransform="translate(25.399265,41.449108)" /><linearGradient
       inkscape:collect="always"
       xlink:href="#linearGradient3"
       id="linearGradient4"
       x1="20.043996"
       y1="74.37768"
       x2="84.958063"
       y2="74.37768"
       gradientUnits="userSpaceOnUse"
       gradientTransform="translate(25.399265,41.449108)" /></defs><g
     inkscape:label="Layer 1"
     inkscape:groupmode="layer"
     id="layer1"><path
       d="m 103.19712,117.95894 c -6.613941,-5.39579 -17.860915,-9.89345 -25.301599,-12.87068 -1.26058,-0.5021 -2.398376,-0.95469 -3.364272,-1.35778 -2.807648,-1.16685 -6.646681,-4.398662 -4.993198,-8.111362 1.113238,-2.51049 3.937261,-3.77634 8.406584,-3.77634 1.432475,0 3.004105,0.14143 4.682145,0.41016 5.828127,0.94055 10.248338,2.82165 12.75312,3.88949 0.311054,0.13437 0.671217,0.14851 0.99864,0.0495 0.319237,-0.10607 0.589359,-0.31823 0.728514,-0.59403 l 5.738086,-11.18051 c 0.25375,-0.48796 0.0573,-1.06785 -0.46658,-1.36486 -4.04367,-2.31955 -14.136479,-5.76352 -25.350712,-5.76352 -1.620743,0 -3.2333,0.0707 -4.804929,0.21215 -8.938642,0.79205 -17.893659,2.84994 -22.854113,12.47466 -3.094145,5.98982 -3.085963,12.736322 0.0082,17.601722 3.306971,5.31092 8.725816,7.68704 15.585329,10.68549 l 0.884038,0.38894 c 4.952271,2.13569 10.886809,4.51181 14.791326,6.07468 5.770826,2.40441 7.907262,6.67578 6.581198,9.24992 -2.136431,4.15114 -6.859508,5.06341 -15.028705,3.06208 -7.211488,-1.69015 -13.866356,-6.46362 -15.724483,-7.88505 -0.27831,-0.21216 -0.64666,-0.31116 -1.023198,-0.26873 -0.36835,0.0424 -0.695769,0.2263 -0.900412,0.48795 l -8.889528,11.77455 c -0.335606,0.44552 -0.26194,1.03249 0.180081,1.40022 4.608479,3.83999 8.365653,6.07468 14.873185,8.83975 4.379278,1.85989 10.788581,2.97723 17.148766,2.97723 6.646686,0 22.878677,-1.3295 30.000117,-13.62029 4.543,-7.86384 2.84858,-16.15199 -4.65759,-22.78534 z"
       fill="#40c0e7"
       id="path1"
       style="fill:url(#linearGradient4);stroke-width:0.760835" /><path
       d="m 165.21233,147.10512 h -29.11746 c -0.4509,0 -0.81299,0.36175 -0.81299,0.8122 v 12.16931 c 0,0.21158 0.082,0.42315 0.23911,0.57332 0.1503,0.15015 0.35526,0.23887 0.57388,0.23887 l 9.43482,-0.0137 c -0.71735,5.72632 -7.20763,10.40841 -14.6817,10.40841 -11.52539,0 -18.65104,-10.57904 -18.65104,-20.38684 0,-9.64399 6.97535,-19.6224 18.65104,-19.6224 5.06242,0 11.58003,3.02355 14.94814,5.94472 0.16397,0.14333 0.37575,0.20475 0.58754,0.19793 0.21862,-0.0137 0.42358,-0.11603 0.56022,-0.27983 l 10.82852,-12.48323 a 0.81982522,0.81902238 0 0 0 -0.0615,-1.13298 c -6.92753,-6.41567 -16.21888,-9.80779 -26.86294,-9.80779 -22.20361,0 -38.320013,15.6365 -38.320013,37.17678 0,21.54712 16.116403,37.18362 38.320013,37.18362 33.48303,0 35.17733,-33.47072 35.17733,-40.17988 0,-0.4368 -0.36209,-0.79854 -0.81299,-0.79854 z"
       fill="#40c0e7"
       id="path1-4"
       style="fill:url(#linearGradient2);stroke-width:0.682855" /></g></svg>
